<svg width="103" height="102" viewBox="0 0 103 102" fill="none" xmlns="http://www.w3.org/2000/svg">
<circle cx="55.999" cy="12.9375" r="11.4375" fill="white"/>
<circle cx="55.999" cy="12.9375" r="11.4375" fill="white"/>
<circle cx="55.999" cy="12.9375" r="11.4375" stroke="black" stroke-width="3"/>
<mask id="path-2-inside-1_293_279" fill="white">
<path fill-rule="evenodd" clip-rule="evenodd" d="M47.719 57.96C44.3846 57.96 41.6815 60.6631 41.6815 63.9975C41.6815 67.3319 44.3846 70.035 47.719 70.035H67.5539L51.1656 91.9178C49.1668 94.5867 49.7101 98.3706 52.379 100.369C55.048 102.368 58.8319 101.825 60.8307 99.156L84.1932 67.9608C86.192 65.2919 85.6487 61.5079 82.9798 59.5091C81.8113 58.6341 80.4291 58.2462 79.0766 58.3107C78.4415 58.0836 77.7572 57.96 77.044 57.96H47.719Z"/>
</mask>
<path fill-rule="evenodd" clip-rule="evenodd" d="M47.719 57.96C44.3846 57.96 41.6815 60.6631 41.6815 63.9975C41.6815 67.3319 44.3846 70.035 47.719 70.035H67.5539L51.1656 91.9178C49.1668 94.5867 49.7101 98.3706 52.379 100.369C55.048 102.368 58.8319 101.825 60.8307 99.156L84.1932 67.9608C86.192 65.2919 85.6487 61.5079 82.9798 59.5091C81.8113 58.6341 80.4291 58.2462 79.0766 58.3107C78.4415 58.0836 77.7572 57.96 77.044 57.96H47.719Z" fill="white"/>
<path d="M67.5539 70.035L69.9552 71.8333L73.5487 67.035H67.5539V70.035ZM51.1656 91.9178L48.7644 90.1194L48.7644 90.1194L51.1656 91.9178ZM60.8307 99.156L63.2319 100.954L63.2319 100.954L60.8307 99.156ZM84.1932 67.9608L81.7919 66.1625L81.7919 66.1625L84.1932 67.9608ZM82.9798 59.5091L84.7781 57.1079L84.7781 57.1079L82.9798 59.5091ZM79.0766 58.3107L78.0668 61.1356L78.6261 61.3356L79.2194 61.3073L79.0766 58.3107ZM44.6815 63.9975C44.6815 62.3199 46.0415 60.96 47.719 60.96V54.96C42.7277 54.96 38.6815 59.0062 38.6815 63.9975H44.6815ZM47.719 67.035C46.0415 67.035 44.6815 65.6751 44.6815 63.9975H38.6815C38.6815 68.9888 42.7277 73.035 47.719 73.035V67.035ZM67.5539 67.035H47.719V73.035H67.5539V67.035ZM53.5669 93.7161L69.9552 71.8333L65.1527 68.2367L48.7644 90.1194L53.5669 93.7161ZM54.1774 97.9682C52.8346 96.9626 52.5613 95.0588 53.5669 93.7161L48.7644 90.1194C45.7724 94.1145 46.5856 99.7787 50.5807 102.771L54.1774 97.9682ZM58.4294 97.3577C57.4238 98.7004 55.5201 98.9738 54.1774 97.9682L50.5807 102.771C54.5758 105.763 60.24 104.949 63.2319 100.954L58.4294 97.3577ZM81.7919 66.1625L58.4294 97.3577L63.2319 100.954L86.5944 69.7591L81.7919 66.1625ZM81.1815 61.9104C82.5242 62.916 82.7975 64.8197 81.7919 66.1625L86.5944 69.7591C89.5864 65.764 88.7732 60.0999 84.7781 57.1079L81.1815 61.9104ZM79.2194 61.3073C79.9011 61.2748 80.5915 61.4685 81.1815 61.9104L84.7781 57.1079C83.0312 55.7996 80.9571 55.2176 78.9338 55.3141L79.2194 61.3073ZM77.044 60.96C77.4082 60.96 77.7512 61.0228 78.0668 61.1356L80.0864 55.4857C79.1318 55.1445 78.1062 54.96 77.044 54.96V60.96ZM47.719 60.96H77.044V54.96H47.719V60.96Z" fill="black" mask="url(#path-2-inside-1_293_279)"/>
<mask id="path-4-inside-2_293_279" fill="white">
<path fill-rule="evenodd" clip-rule="evenodd" d="M90.6154 43.2297C89.6832 43.8189 88.5784 44.16 87.394 44.16H64.969C61.6346 44.16 58.9315 41.4569 58.9315 38.1225C58.9315 34.788 61.6346 32.085 64.969 32.085H85.5046L92.9716 21.2853C94.7759 18.6756 98.2361 18.1803 100.7 20.1791C103.164 22.1779 103.699 25.9138 101.894 28.5236L93.0985 41.2454C92.4457 42.1896 91.5761 42.857 90.6154 43.2297Z"/>
</mask>
<path fill-rule="evenodd" clip-rule="evenodd" d="M90.6154 43.2297C89.6832 43.8189 88.5784 44.16 87.394 44.16H64.969C61.6346 44.16 58.9315 41.4569 58.9315 38.1225C58.9315 34.788 61.6346 32.085 64.969 32.085H85.5046L92.9716 21.2853C94.7759 18.6756 98.2361 18.1803 100.7 20.1791C103.164 22.1779 103.699 25.9138 101.894 28.5236L93.0985 41.2454C92.4457 42.1896 91.5761 42.857 90.6154 43.2297Z" fill="white"/>
<path d="M90.6154 43.2297L89.5305 40.4327L89.2588 40.5381L89.0125 40.6938L90.6154 43.2297ZM85.5046 32.085V35.085H87.0777L87.9723 33.7911L85.5046 32.085ZM92.9716 21.2853L90.5039 19.5792L90.5039 19.5792L92.9716 21.2853ZM100.7 20.1791L102.59 17.8493L102.59 17.8493L100.7 20.1791ZM101.894 28.5236L99.4268 26.8174L99.4268 26.8174L101.894 28.5236ZM93.0985 41.2454L95.5661 42.9515L95.5661 42.9515L93.0985 41.2454ZM89.0125 40.6938C88.5458 40.9888 87.9945 41.16 87.394 41.16V47.16C89.1624 47.16 90.8205 46.649 92.2183 45.7656L89.0125 40.6938ZM87.394 41.16H64.969V47.16H87.394V41.16ZM64.969 41.16C63.2915 41.16 61.9315 39.8 61.9315 38.1225H55.9315C55.9315 43.1137 59.9777 47.16 64.969 47.16V41.16ZM61.9315 38.1225C61.9315 36.4449 63.2915 35.085 64.969 35.085V29.085C59.9777 29.085 55.9315 33.1312 55.9315 38.1225H61.9315ZM64.969 35.085H85.5046V29.085H64.969V35.085ZM87.9723 33.7911L95.4392 22.9914L90.5039 19.5792L83.037 30.3788L87.9723 33.7911ZM95.4392 22.9914C96.2498 21.8189 97.7031 21.6109 98.8101 22.5089L102.59 17.8493C98.7691 14.7497 93.302 15.5322 90.5039 19.5792L95.4392 22.9914ZM98.8101 22.5089C100.057 23.52 100.34 25.4973 99.4268 26.8174L104.362 30.2297C107.058 26.3304 106.272 20.8358 102.59 17.8493L98.8101 22.5089ZM99.4268 26.8174L90.6309 39.5393L95.5661 42.9515L104.362 30.2297L99.4268 26.8174ZM90.6309 39.5393C90.3165 39.994 89.9267 40.279 89.5305 40.4327L91.7003 46.0266C93.2255 45.435 94.5749 44.3852 95.5661 42.9515L90.6309 39.5393Z" fill="black" mask="url(#path-4-inside-2_293_279)"/>
<mask id="path-6-inside-3_293_279" fill="white">
<path fill-rule="evenodd" clip-rule="evenodd" d="M15.9101 45.8767L20.2963 40.02H39.8952L1.20512 91.6881C-0.793512 94.3571 -0.250036 98.141 2.41901 100.14C5.08806 102.138 8.87196 101.595 10.8706 98.9258L55.2422 39.6704C56.0265 38.623 56.4193 37.4039 56.4458 36.1884C56.7142 35.5051 56.8615 34.761 56.8615 33.9825C56.8615 30.6481 54.1585 27.945 50.824 27.945H19.429C18.7117 27.945 18.0235 28.0701 17.3852 28.2997C15.4268 28.1819 13.4487 29.0196 12.1846 30.7075L6.24504 38.6385C4.24625 41.3074 4.7895 45.0913 7.45843 47.0901C10.1274 49.0889 13.9113 48.5457 15.9101 45.8767Z"/>
</mask>
<path fill-rule="evenodd" clip-rule="evenodd" d="M15.9101 45.8767L20.2963 40.02H39.8952L1.20512 91.6881C-0.793512 94.3571 -0.250036 98.141 2.41901 100.14C5.08806 102.138 8.87196 101.595 10.8706 98.9258L55.2422 39.6704C56.0265 38.623 56.4193 37.4039 56.4458 36.1884C56.7142 35.5051 56.8615 34.761 56.8615 33.9825C56.8615 30.6481 54.1585 27.945 50.824 27.945H19.429C18.7117 27.945 18.0235 28.0701 17.3852 28.2997C15.4268 28.1819 13.4487 29.0196 12.1846 30.7075L6.24504 38.6385C4.24625 41.3074 4.7895 45.0913 7.45843 47.0901C10.1274 49.0889 13.9113 48.5457 15.9101 45.8767Z" fill="white"/>
<path d="M20.2963 40.02V37.02H18.795L17.895 38.2217L20.2963 40.02ZM15.9101 45.8767L13.5088 44.0784L13.5088 44.0784L15.9101 45.8767ZM39.8952 40.02L42.2965 41.8182L45.8895 37.02H39.8952V40.02ZM1.20512 91.6881L-1.19624 89.8899L-1.19624 89.8899L1.20512 91.6881ZM2.41901 100.14L4.2172 97.7383L4.2172 97.7383L2.41901 100.14ZM10.8706 98.9258L8.46923 97.1276L8.46923 97.1276L10.8706 98.9258ZM55.2422 39.6704L57.6435 41.4686L57.6435 41.4686L55.2422 39.6704ZM56.4458 36.1884L53.6534 35.0919L53.4582 35.589L53.4466 36.123L56.4458 36.1884ZM17.3852 28.2997L17.2051 31.2943L17.8205 31.3313L18.4007 31.1226L17.3852 28.2997ZM12.1846 30.7075L14.5859 32.5058L14.5859 32.5058L12.1846 30.7075ZM6.24504 38.6385L3.84379 36.8401L3.84379 36.8401L6.24504 38.6385ZM7.45843 47.0901L9.25676 44.6889L9.25676 44.6889L7.45843 47.0901ZM17.895 38.2217L13.5088 44.0784L18.3113 47.6751L22.6975 41.8183L17.895 38.2217ZM39.8952 37.02H20.2963V43.02H39.8952V37.02ZM3.60648 93.4863L42.2965 41.8182L37.4938 38.2218L-1.19624 89.8899L3.60648 93.4863ZM4.2172 97.7383C2.87438 96.7328 2.60096 94.8291 3.60648 93.4863L-1.19624 89.8899C-4.18798 93.8852 -3.37446 99.5493 0.620826 102.541L4.2172 97.7383ZM8.46923 97.1276C7.46371 98.4704 5.56001 98.7438 4.2172 97.7383L0.620826 102.541C4.61611 105.533 10.2802 104.719 13.272 100.724L8.46923 97.1276ZM52.8408 37.8722L8.46923 97.1276L13.272 100.724L57.6435 41.4686L52.8408 37.8722ZM53.4466 36.123C53.4332 36.7334 53.2377 37.3422 52.8408 37.8722L57.6435 41.4686C58.8153 39.9038 59.4054 38.0745 59.4451 36.2539L53.4466 36.123ZM53.8615 33.9825C53.8615 34.3797 53.7868 34.7522 53.6534 35.0919L59.2383 37.285C59.6415 36.2581 59.8615 35.1424 59.8615 33.9825H53.8615ZM50.824 30.945C52.5016 30.945 53.8615 32.3049 53.8615 33.9825H59.8615C59.8615 28.9912 55.8153 24.945 50.824 24.945V30.945ZM19.429 30.945H50.824V24.945H19.429V30.945ZM18.4007 31.1226C18.7179 31.0085 19.0627 30.945 19.429 30.945V24.945C18.3606 24.945 17.3292 25.1317 16.3698 25.4768L18.4007 31.1226ZM14.5859 32.5058C15.2201 31.659 16.2107 31.2345 17.2051 31.2943L17.5653 25.3051C14.6428 25.1293 11.6774 26.3802 9.78339 28.9092L14.5859 32.5058ZM8.6463 40.4368L14.5859 32.5058L9.78339 28.9092L3.84379 36.8401L8.6463 40.4368ZM9.25676 44.6889C7.91401 43.6833 7.64069 41.7796 8.6463 40.4368L3.84379 36.8401C0.85181 40.8352 1.665 46.4994 5.6601 49.4914L9.25676 44.6889ZM13.5088 44.0784C12.5032 45.4212 10.5995 45.6945 9.25676 44.6889L5.6601 49.4914C9.65521 52.4834 15.3194 51.6702 18.3113 47.6751L13.5088 44.0784Z" fill="black" mask="url(#path-6-inside-3_293_279)"/>
</svg>
